<svg width="256" height="256" viewBox="0 0 256 256" fill="none" xmlns="http://www.w3.org/2000/svg">
<rect width="256" height="256" rx="48" fill="url(#paint0_linear_402_2)"/>
<path d="M214.973 219.403H207.688V73.7085H214.973C221.037 73.7085 226.051 75.7844 230.409 80.1417C234.766 84.4988 236.835 89.5054 236.827 95.5539V95.5628V197.549C236.827 203.617 234.753 208.633 230.404 212.989C226.062 217.339 221.055 219.411 214.982 219.403H214.973ZM40.139 219.403C34.0713 219.403 29.0629 217.33 24.718 212.985C20.3737 208.641 18.293 203.626 18.2847 197.544V95.5628C18.2847 89.4991 20.3602 84.492 24.7136 80.1461C29.073 75.7941 34.0868 73.7168 40.1438 73.7085H47.4238V219.403H40.139ZM83.8475 219.403V73.7085H171.265V219.403H83.8475Z" fill="white" stroke="white" stroke-width="14.5695"/>
<path d="M83.8481 59.139H98.4176V44.5695C98.4176 40.5462 101.679 37.2848 105.702 37.2848H149.411C153.434 37.2848 156.696 40.5462 156.696 44.5695V51.8543V59.139H171.265V44.5695C171.265 36.523 164.742 30 156.696 30H98.4176C90.3711 30 83.8481 36.523 83.8481 44.5695V59.139Z" fill="white" stroke="white" stroke-width="2.9139"/>
<g clip-path="url(#clip0_402_2)">
<path d="M102.542 132.917L115 136.513L128.693 126.568L109.042 127.132C108.849 127.14 108.662 127.2 108.5 127.305L102.282 130.88C102.088 130.987 101.931 131.15 101.831 131.347C101.732 131.544 101.693 131.767 101.721 131.986C101.749 132.206 101.842 132.412 101.989 132.578C102.135 132.743 102.327 132.862 102.542 132.917Z" fill="#0500FF"/>
<path d="M163.793 121.78L150.143 118.833C148.995 118.584 147.807 118.585 146.66 118.835C145.512 119.086 144.432 119.58 143.492 120.285L102.26 150.25L92.3585 149.817C91.7913 149.797 91.2324 149.957 90.7607 150.272C90.289 150.588 89.9283 151.043 89.7296 151.575C89.5309 152.107 89.5041 152.687 89.6532 153.235C89.8022 153.782 90.1194 154.269 90.5601 154.627L100.202 162.275C100.361 162.403 100.549 162.488 100.751 162.522C100.952 162.557 101.158 162.538 101.35 162.47C104.102 161.408 114.35 155.97 126.462 149.318L128.888 174.257C128.909 174.473 128.988 174.679 129.117 174.853C129.247 175.028 129.421 175.163 129.622 175.246C129.822 175.328 130.042 175.354 130.256 175.321C130.471 175.288 130.672 175.197 130.838 175.058L136.255 170.552C136.552 170.303 136.751 169.958 136.818 169.577L141.953 140.782C150.62 135.972 158.897 131.313 164.725 128.02C165.33 127.691 165.819 127.184 166.126 126.567C166.433 125.951 166.543 125.255 166.441 124.574C166.34 123.893 166.031 123.26 165.558 122.76C165.084 122.26 164.468 121.918 163.793 121.78Z" fill="#0500FF"/>
</g>
<defs>
<linearGradient id="paint0_linear_402_2" x1="132" y1="0" x2="132" y2="256" gradientUnits="userSpaceOnUse">
<stop stop-color="#EEFEBF"/>
<stop offset="0.73" stop-color="#227D7D"/>
</linearGradient>
<clipPath id="clip0_402_2">
<rect width="78" height="78" fill="white" transform="translate(89 108)"/>
</clipPath>
</defs>
</svg>
