<svg width="32" height="32" viewBox="0 0 32 32" fill="none" xmlns="http://www.w3.org/2000/svg">
<rect width="32" height="32" rx="8" fill="url(#paint0_linear_402_3)"/>
<path d="M26.7388 12.981V12.9819V22.7994C26.7388 23.3835 26.5391 23.8663 26.1205 24.2857C25.7025 24.7043 25.2204 24.9038 24.6358 24.9031H24.635H23.9338V10.8781H24.635C25.2187 10.8781 25.7014 11.078 26.1209 11.4974C26.5403 11.9168 26.7395 12.3988 26.7388 12.981ZM7.805 24.9031C7.22091 24.9031 6.73879 24.7035 6.32053 24.2853C5.90234 23.8671 5.70205 23.3843 5.70125 22.7989V12.9819C5.70125 12.3982 5.90104 11.9162 6.32011 11.4978C6.73975 11.0789 7.22239 10.8789 7.80544 10.8781H8.50625V24.9031H7.805ZM12.0125 24.9031V10.8781H20.4275V24.9031H12.0125Z" fill="white" stroke="white" stroke-width="1.4025"/>
<path d="M12.0125 9.47562H13.415V8.07312C13.415 7.68583 13.7289 7.37187 14.1162 7.37187H18.3237C18.711 7.37187 19.025 7.68583 19.025 8.07312V8.77437V9.47562H20.4275V8.07312C20.4275 7.29854 19.7995 6.67062 19.025 6.67062H13.415C12.6404 6.67062 12.0125 7.29854 12.0125 8.07312V9.47562Z" fill="white" stroke="white" stroke-width="0.2805"/>
<g clip-path="url(#clip0_402_3)">
<path d="M14.2513 16.3048L15.4037 16.6375L16.6703 15.7176L14.8525 15.7697C14.8347 15.7705 14.8174 15.776 14.8024 15.7857L14.2272 16.1164C14.2093 16.1263 14.1948 16.1414 14.1856 16.1596C14.1764 16.1779 14.1728 16.1985 14.1754 16.2187C14.178 16.239 14.1866 16.2581 14.2001 16.2734C14.2137 16.2888 14.2315 16.2997 14.2513 16.3048Z" fill="#0500FF"/>
<path d="M19.9171 15.2746L18.6544 15.0021C18.5483 14.979 18.4383 14.9791 18.3322 15.0023C18.226 15.0254 18.1261 15.0712 18.0392 15.1364L14.2252 17.9081L13.3093 17.868C13.2569 17.8663 13.2052 17.881 13.1615 17.9102C13.1179 17.9394 13.0845 17.9815 13.0662 18.0307C13.0478 18.0799 13.0453 18.1336 13.0591 18.1842C13.0729 18.2349 13.1022 18.2799 13.143 18.313L14.0348 19.0204C14.0495 19.0323 14.067 19.0402 14.0856 19.0433C14.1042 19.0465 14.1233 19.0448 14.1411 19.0385C14.3956 18.9403 15.3436 18.4372 16.4639 17.8219L16.6884 20.1287C16.6903 20.1487 16.6976 20.1678 16.7095 20.1839C16.7215 20.2 16.7376 20.2126 16.7562 20.2202C16.7747 20.2279 16.795 20.2303 16.8149 20.2272C16.8347 20.2242 16.8533 20.2158 16.8687 20.2029L17.3698 19.786C17.3972 19.763 17.4156 19.7311 17.4219 19.6958L17.8969 17.0323C18.6985 16.5874 19.4641 16.1565 20.0032 15.8518C20.0592 15.8214 20.1044 15.7745 20.1328 15.7175C20.1612 15.6605 20.1714 15.5961 20.162 15.5331C20.1526 15.4701 20.1241 15.4115 20.0802 15.3653C20.0364 15.3191 19.9795 15.2874 19.9171 15.2746Z" fill="#0500FF"/>
</g>
<defs>
<linearGradient id="paint0_linear_402_3" x1="16.5" y1="0" x2="16.5" y2="32" gradientUnits="userSpaceOnUse">
<stop stop-color="#EEFEBF"/>
<stop offset="0.73" stop-color="#227D7D"/>
</linearGradient>
<clipPath id="clip0_402_3">
<rect width="7.215" height="7.215" fill="white" transform="translate(13 14)"/>
</clipPath>
</defs>
</svg>
